<svg width="840" height="140" viewBox="0 0 840 140" fill="none" xmlns="http://www.w3.org/2000/svg">
<mask id="mask0_10_296" style="mask-type:alpha" maskUnits="userSpaceOnUse" x="27" y="25" width="786" height="90">
<rect x="27.5" y="25.5" width="784.571" height="89" fill="white" stroke="black"/>
</mask>
<g mask="url(#mask0_10_296)">
<path d="M749.809 114.1V27.3229H810.011V45.2981H770.164V96.1245H811.244V114.1H749.809ZM759.678 78.5212V61.4138H804.46V78.5212H759.678Z" fill="white"/>
<path d="M615.65 114.1V27.3229H634.402L665.859 78.7692L652.413 78.6452L684.241 27.3229H702.252V114.1H681.897V87.0749C681.897 79.6369 682.061 72.9427 682.39 66.9923C682.801 61.0419 683.459 55.1328 684.364 49.265L686.708 55.7113L662.775 93.0254H654.633L631.194 55.9592L633.538 49.265C634.443 54.8022 635.059 60.5047 635.388 66.3725C635.8 72.1576 636.005 79.0584 636.005 87.0749V114.1H615.65Z" fill="white"/>
<path d="M532.19 158.714C525.611 158.714 519.607 157.599 514.179 155.367C508.751 153.136 504.022 149.995 499.992 145.946C495.962 141.896 492.837 137.144 490.617 131.689C488.396 126.235 487.286 120.243 487.286 113.714C487.286 107.185 488.396 101.194 490.617 95.7391C492.837 90.2845 495.962 85.5325 499.992 81.4829C504.022 77.4333 508.751 74.2928 514.179 72.0614C519.607 69.83 525.57 68.7143 532.067 68.7143C538.564 68.7143 544.527 69.83 549.955 72.0614C555.383 74.2928 560.112 77.4333 564.141 81.4829C568.171 85.5325 571.255 90.2845 573.394 95.7391C575.614 101.194 576.724 107.185 576.724 113.714C576.724 120.161 575.614 126.152 573.394 131.689C571.255 137.144 568.171 141.896 564.141 145.946C560.112 149.995 555.383 153.136 549.955 155.367C544.527 157.599 538.605 158.714 532.19 158.714ZM532.067 138.88C535.439 138.88 538.523 138.26 541.319 137.02C544.198 135.78 546.665 134.045 548.721 131.813C550.859 129.499 552.504 126.813 553.655 123.756C554.807 120.698 555.383 117.351 555.383 113.714C555.383 110.078 554.807 106.731 553.655 103.673C552.504 100.615 550.859 97.9705 548.721 95.7391C546.665 93.425 544.198 91.6482 541.319 90.4085C538.523 89.1688 535.439 88.549 532.067 88.549C528.695 88.549 525.57 89.1688 522.691 90.4085C519.895 91.6482 517.428 93.425 515.289 95.7391C513.151 97.9705 511.506 100.615 510.355 103.673C509.286 106.731 508.751 110.078 508.751 113.714C508.751 117.351 509.286 120.739 510.355 123.88C511.506 126.937 513.151 129.582 515.289 131.813C517.428 134.045 519.895 135.78 522.691 137.02C525.57 138.26 528.695 138.88 532.067 138.88Z" fill="white"/>
<path d="M388.492 114.1V27.3229H409.464V95.5047H447.953V114.1H388.492Z" fill="white"/>
<path d="M264.717 114.1L298.888 27.3229H316.653L350.578 114.1H329.359L313.075 70.0915C312.417 68.3559 311.759 66.4964 311.101 64.513C310.444 62.5295 309.786 60.5047 309.128 58.4386C308.47 56.2898 307.812 54.2237 307.154 52.2402C306.578 50.1741 306.085 48.2733 305.673 46.5378L309.374 46.4138C308.881 48.4799 308.305 50.5047 307.647 52.4882C307.072 54.4716 306.455 56.4551 305.797 58.4386C305.221 60.3394 304.563 62.2816 303.823 64.265C303.083 66.1659 302.384 68.1493 301.726 70.2154L285.442 114.1H264.717ZM281.001 97.4882L287.539 81.6204H327.262L333.677 97.4882H281.001Z" fill="white"/>
<path d="M149.046 114.1V27.3229H167.797L213.072 89.3064L209.001 88.6865C208.589 85.9592 208.26 83.3559 208.014 80.8766C207.767 78.3973 207.52 75.9592 207.273 73.5625C207.109 71.1659 206.944 68.7278 206.78 66.2485C206.698 63.7692 206.616 61.0832 206.533 58.1906C206.533 55.2981 206.533 52.1576 206.533 48.7692V27.3229H226.888V114.1H207.89L160.642 50.1328L166.933 51.0006C167.345 54.9675 167.674 58.3559 167.92 61.1659C168.249 63.8931 168.496 66.3311 168.661 68.4799C168.907 70.6287 169.072 72.5708 169.154 74.3063C169.236 76.0419 169.277 77.7774 169.277 79.513C169.36 81.1658 169.401 83.0254 169.401 85.0915V114.1H149.046Z" fill="white"/>
<path d="M65.2537 113.558C58.0986 113.558 51.7248 112.112 46.1323 109.219C40.5398 106.244 36.1399 102.194 32.9324 97.0702C29.8072 91.9463 28.2446 86.0785 28.2446 79.4669V26.0372H49.4632V78.3512C49.4632 81.4917 50.1622 84.343 51.5603 86.9049C52.9585 89.3843 54.85 91.3678 57.2351 92.8554C59.6201 94.2603 62.293 94.9628 65.2537 94.9628C68.3789 94.9628 71.1341 94.2603 73.5191 92.8554C75.9864 91.3678 77.9602 89.3843 79.4406 86.9049C80.9209 84.343 81.6611 81.4917 81.6611 78.3512V26.0372H102.14V79.4669C102.14 86.0785 100.536 91.9463 97.3283 97.0702C94.2031 102.194 89.8443 106.244 84.2518 109.219C78.6593 112.112 72.3266 113.558 65.2537 113.558Z" fill="white"/>
<path d="M530.585 25L543.857 48.1429H518.143L530.585 25Z" fill="url(#paint0_linear_10_296)"/>
</g>
<defs>
<linearGradient id="paint0_linear_10_296" x1="525.214" y1="28.2143" x2="544.5" y2="55.2143" gradientUnits="userSpaceOnUse">
<stop stop-color="#10B981"/>
<stop offset="1" stop-color="#14B8A6"/>
</linearGradient>
</defs>
</svg>
